<?xml version="1.0" standalone="no"?>
<!DOCTYPE svg PUBLIC "-//W3C//DTD SVG 20010904//EN"
 "http://www.w3.org/TR/2001/REC-SVG-20010904/DTD/svg10.dtd">
<svg version="1.0" xmlns="http://www.w3.org/2000/svg"
 width="234.000000pt" height="157.000000pt" viewBox="0 0 234.000000 157.000000"
 preserveAspectRatio="xMidYMid meet">

<g transform="translate(0.000000,157.000000) scale(0.100000,-0.100000)"
fill="#FFE497" stroke="none">
<path d="M1113 1550 c-27 -11 -57 -56 -81 -122 -9 -27 -19 -48 -22 -48 -3 0
-13 13 -23 29 -27 45 -84 91 -115 91 -58 0 -87 -44 -95 -143 -2 -26 -7 -50
-10 -54 -4 -3 -25 11 -48 32 -135 121 -225 48 -176 -143 8 -28 12 -54 10 -56
-2 -2 -30 9 -61 24 -78 39 -114 45 -150 26 -72 -37 -46 -137 81 -309 27 -37
48 -70 45 -72 -2 -2 -40 8 -83 22 -101 33 -203 37 -234 9 -45 -41 -22 -106 72
-203 l60 -63 -45 0 c-68 0 -155 -20 -177 -42 -13 -12 -21 -31 -21 -52 0 -28 9
-42 52 -81 29 -26 68 -55 86 -63 39 -19 41 -30 4 -38 -108 -24 -172 -68 -172
-119 0 -59 47 -91 180 -124 272 -67 712 -37 830 58 l35 28 2 109 c1 60 -3 121
-8 135 -9 22 -6 30 23 60 66 70 114 69 177 -3 26 -29 30 -41 22 -55 -5 -11
-10 -69 -10 -131 -1 -101 1 -113 20 -131 60 -56 188 -89 389 -101 385 -24 683
59 639 177 -11 30 -72 68 -141 88 -32 9 -58 18 -58 20 0 3 24 20 53 38 107 69
143 139 95 184 -23 21 -111 43 -175 43 -18 0 -33 3 -33 6 0 4 27 35 60 70 70
76 92 131 69 172 -22 39 -58 48 -140 34 -38 -7 -96 -21 -127 -31 -31 -11 -58
-18 -60 -16 -2 1 23 38 54 81 100 139 134 248 91 291 -25 25 -94 21 -163 -11
-31 -14 -60 -26 -64 -26 -4 0 -1 23 6 52 28 105 14 177 -37 198 -24 10 -35 9
-71 -9 -24 -11 -58 -34 -76 -51 -19 -17 -38 -28 -43 -25 -5 4 -9 29 -9 56 0
100 -52 161 -115 135 -34 -15 -96 -80 -120 -125 -19 -38 -35 -40 -35 -6 0 33
-51 145 -76 166 -26 23 -55 29 -81 19z m74 -120 c11 -30 27 -90 34 -132 12
-75 12 -79 -19 -180 -18 -57 -32 -109 -32 -115 0 -7 -4 -13 -9 -13 -4 0 -16
30 -26 68 -10 37 -31 101 -47 142 -32 80 -32 117 -2 203 36 103 67 111 101 27z
m-266 -32 c68 -94 71 -107 64 -249 -4 -71 -10 -129 -14 -128 -3 0 -35 44 -70
97 l-64 97 0 91 c0 138 28 169 84 92z m549 16 c6 -14 10 -64 10 -111 l0 -85
-80 -125 c-44 -69 -80 -130 -80 -134 0 -5 -4 -9 -10 -9 -6 0 -10 52 -10 135
l0 135 39 79 c44 86 85 141 107 141 8 0 19 -12 24 -26z m-827 -95 c31 -16 116
-99 131 -129 8 -14 17 -47 21 -75 7 -50 42 -192 51 -206 2 -4 1 -10 -3 -12 -5
-3 -50 34 -101 82 -84 78 -95 93 -118 156 -14 38 -28 97 -31 132 -6 69 2 77
50 52z m1083 -50 c-3 -33 -17 -93 -31 -132 -22 -65 -32 -78 -112 -154 -49 -45
-92 -82 -97 -83 -5 0 -6 12 -2 28 3 15 17 81 30 146 25 117 26 121 73 169 55
56 99 87 127 87 17 0 18 -6 12 -61z m-1298 -143 c22 -8 69 -33 106 -56 61 -38
69 -48 115 -137 82 -155 158 -262 258 -361 51 -51 93 -95 93 -98 0 -14 -29 3
-92 56 -39 33 -104 81 -145 107 -134 87 -152 102 -233 200 -112 135 -184 262
-165 292 8 14 15 14 63 -3z m1525 -20 c-3 -40 -36 -104 -96 -185 -99 -132
-161 -194 -248 -247 -46 -29 -119 -81 -163 -115 -105 -85 -116 -93 -122 -86
-3 3 30 39 73 80 96 92 170 194 258 354 69 126 83 141 185 193 51 26 90 39
105 36 6 -2 9 -15 8 -30z m-887 -13 c4 -16 15 -59 25 -98 27 -104 40 -199 33
-245 -4 -22 -9 -38 -12 -35 -3 3 -19 38 -35 78 -26 63 -30 88 -34 200 -4 89
-2 127 6 127 6 0 14 -12 17 -27z m-130 -139 c43 -79 74 -183 74 -248 0 -56
-63 60 -99 184 -13 41 -27 88 -32 104 -11 37 -11 46 0 46 6 0 31 -39 57 -86z
m508 59 c-23 -97 -80 -249 -110 -295 -20 -29 -45 -70 -55 -90 -11 -21 -24 -38
-29 -38 -13 0 -13 7 4 55 7 22 21 65 31 95 17 55 89 206 127 268 24 39 41 42
32 5z m-214 -188 c-14 -106 -25 -134 -35 -92 -11 42 10 202 33 257 12 30 14
-77 2 -165z m-399 -14 c69 -77 157 -217 143 -230 -7 -7 -59 50 -129 144 -64
87 -110 165 -97 165 6 0 43 -36 83 -79z m728 42 c-66 -110 -190 -268 -207
-262 -18 7 71 148 142 225 73 81 101 96 65 37z m-1188 -83 c130 -43 224 -95
309 -167 69 -60 175 -134 248 -175 30 -16 69 -64 60 -73 -2 -3 -35 12 -73 32
-107 57 -227 100 -379 138 -135 33 -140 36 -209 92 -78 64 -142 145 -133 168
9 24 79 18 177 -15z m1755 15 c9 -23 -53 -101 -132 -167 -71 -58 -72 -58 -228
-98 -154 -39 -311 -97 -387 -145 -44 -29 -49 -30 -49 -12 0 16 58 72 83 80 30
11 139 87 222 157 95 79 146 110 240 145 143 54 240 70 251 40z m-1617 -358
c74 -42 138 -77 143 -77 4 0 8 -6 8 -12 0 -10 -41 -13 -173 -13 l-172 0 -81
43 c-123 65 -166 122 -102 135 13 3 73 4 133 3 l110 -2 134 -77z m1681 74 c14
-4 26 -14 28 -23 4 -23 -74 -83 -159 -121 l-74 -33 -163 2 c-90 1 -165 4 -169
7 -3 3 23 20 56 37 34 17 92 49 129 72 37 23 83 47 102 54 37 14 207 17 250 5z
m-1504 -75 c135 -46 248 -106 200 -106 -37 0 -286 106 -286 121 0 13 10 11 86
-15z m1022 12 c-3 -7 -54 -34 -114 -60 -126 -54 -164 -65 -164 -48 0 12 99 60
200 96 77 27 83 28 78 12z m-1018 -168 c114 -12 230 -38 230 -53 0 -14 -193
-2 -290 18 -97 20 -110 24 -110 36 0 11 49 11 170 -1z m1114 1 c7 -11 -49 -25
-174 -46 -101 -16 -230 -20 -230 -7 0 30 387 81 404 53z m-1387 -35 c196 -62
402 -94 516 -81 31 4 57 4 57 1 0 -13 -66 -38 -148 -57 -59 -13 -142 -22 -257
-26 -146 -5 -188 -2 -295 16 -130 22 -213 54 -218 83 -4 22 42 46 133 69 95
24 121 23 212 -5z m1688 9 c93 -25 147 -52 143 -72 -4 -25 -78 -59 -168 -78
-118 -25 -414 -31 -525 -11 -193 36 -289 81 -147 69 113 -9 359 33 506 87 64
23 115 24 191 5z"/>
</g>
</svg>
