<svg xmlns="http://www.w3.org/2000/svg" viewBox="0 0 201.76 43.96"><defs><style>.\30 9bc304c-61e7-4fb6-9ceb-af62df7c460f{fill:#006647}.\38 39078c6-fbd9-4c2d-8018-314e11713a5b{fill:#ffdb00}</style></defs><title>logo</title><g id="27e9ad25-7bf0-496c-a8ab-86b32640d944" data-name="Layer 2"><g id="1a69f4e0-0f12-4d2a-bfbb-fa69fbe2044a" data-name="Layer 1"><path class="09bc304c-61e7-4fb6-9ceb-af62df7c460f" d="M8.81 36a2.58 2.58 0 0 0 1 2.13 3.72 3.72 0 0 0 2.27.71c1.42 0 2.94-.45 2.94-2.09C15 33.07.71 36 .71 27c0-6 6.18-7.69 11-7.69 5.07 0 11 1.16 11.56 7.34H14.9A2.43 2.43 0 0 0 14 25a2.92 2.92 0 0 0-1.87-.58c-1.6 0-2.62.49-2.62 1.64 0 3.25 14.72 1.07 14.72 9.78 0 4.85-4 8.14-12.54 8.14C6.36 44 .49 42.32 0 36zM44.53 43.29l-.45-2.49c-2.61 2.45-5.28 3.2-8.75 3.2-4.4 0-8.32-2.18-8.32-7C27 26.35 43.6 31.15 43.6 26.8c0-1.69-2-1.91-3-1.91-1.29 0-3 .27-3.25 2.27h-8.91c0-4.94 3.51-7.83 12.72-7.83 11 0 11.7 4.09 11.7 9.65v10.9a3 3 0 0 0 1.24 3v.45zM43.6 33c-3 1.47-7 .76-7 3.78 0 1.16 1.11 2 2.93 2 3.25 0 4.31-2.54 4.09-5.74M74.66 43.29v-3.11C72.48 43 70.48 44 67.5 44c-7 0-10.58-5.29-10.58-11.87 0-7.74 4.31-12.76 9.87-12.76a8.08 8.08 0 0 1 6.94 3V11.28H83v32zM74 31.87c0-2.58-.89-5.38-4-5.38s-3.83 2.93-3.83 5.51.62 5.29 3.65 5.29c3.2 0 4.23-2.71 4.23-5.43M87.87 11.28h9.25V43.3h-9.25zM110.54 33.73a4.49 4.49 0 0 0 4.58 4.58 3.69 3.69 0 0 0 3.47-2h8.85C125.84 42 120 44 114.55 44c-7.47 0-13.25-4.27-13.25-12.1 0-7.65 5.74-12.54 13.21-12.54 8.63 0 13.83 6 13.7 14.41zm8.41-4.73a4.19 4.19 0 0 0-4.09-4c-2.76 0-4.31 1.56-4.31 4zM192.51 36.86h9.25v6.58h-9.25zM132.33 19.99h9.25v23.3h-9.25zM146.7 20h8.4v4.71h.09c1.29-3.65 3.56-5.38 7.16-5.38a11.11 11.11 0 0 1 1.2.13v9.25a14.27 14.27 0 0 0-1.91-.27c-3.78 0-5.69 1.78-5.69 6.8v8h-9.25zM174.4 36a2.58 2.58 0 0 0 1 2.13 3.73 3.73 0 0 0 2.27.71c1.42 0 2.93-.45 2.93-2.09 0-3.73-14.28-.76-14.28-9.78 0-6 6.18-7.69 11-7.69 5.07 0 11 1.16 11.56 7.34h-8.4a2.43 2.43 0 0 0-.88-1.62 2.93 2.93 0 0 0-1.87-.58c-1.6 0-2.62.49-2.62 1.64 0 3.25 14.72 1.07 14.72 9.78 0 4.85-4 8.14-12.54 8.14C172 44 166.08 42.32 165.6 36z"/><path class="839078c6-fbd9-4c2d-8018-314e11713a5b" d="M172.26 5.55a35.22 35.22 0 0 1 24.8 26.24 32.41 32.41 0 0 0-59.67-16.89 35.22 35.22 0 0 1 34.87-9.35"/></g></g></svg>