<?xml version="1.0" encoding="UTF-8" standalone="no"?>
<!DOCTYPE svg PUBLIC "-//W3C//DTD SVG 1.1//EN" "http://www.w3.org/Graphics/SVG/1.1/DTD/svg11.dtd">
<svg width="100%" height="100%" viewBox="0 0 2196 346" version="1.1" xmlns="http://www.w3.org/2000/svg" xmlns:xlink="http://www.w3.org/1999/xlink" xml:space="preserve" xmlns:serif="http://www.serif.com/" style="fill-rule:evenodd;clip-rule:evenodd;stroke-linejoin:round;stroke-miterlimit:2;">
    <g transform="matrix(4.16667,0,0,4.16667,0,0)">
        <path d="M10.938,30.744L24.138,0.487L71.041,49.139L21.414,49.169C12.843,49.173 7.215,39.275 10.938,30.744Z" style="fill:rgb(50,62,73);fill-rule:nonzero;"/>
        <path d="M102.602,82.896" style="fill:rgb(101,199,199);fill-rule:nonzero;"/>
        <path d="M0,61.156L7.703,72.238C12.389,78.98 20.194,83.011 28.536,83L102.677,83L81.584,61.156L0,61.156Z" style="fill:rgb(101,199,199);fill-rule:nonzero;"/>
        <path d="M181.898,44.511C181.898,52.125 180.531,54.273 174.87,54.273C169.208,54.273 167.841,51.995 167.841,44.511L167.841,22.124L155.476,22.124L155.476,45.812C155.476,57.916 161.919,62.797 174.544,62.797C187.69,62.797 194.262,57.916 194.262,45.812L194.262,22.124L181.898,22.124L181.898,44.511Z" style="fill:rgb(50,62,73);fill-rule:nonzero;"/>
        <path d="M200.068,34.099C200.068,41.127 204.038,45.812 212.368,45.812L219.461,45.812C221.999,45.812 223.496,46.918 223.496,49.717C223.496,52.385 221.674,53.426 219.266,53.426L201.24,53.426L201.24,62.147L222.975,62.147C231.24,62.147 235.47,57.656 235.47,50.173C235.47,42.688 231.501,38.263 223.236,38.263L215.817,38.263C213.279,38.263 211.782,37.157 211.782,34.554C211.782,31.756 213.409,30.844 216.012,30.844L244.061,30.844L244.061,62.147L256.426,62.147L256.426,30.844L268.595,30.844L268.595,22.125L212.759,22.125C204.298,22.125 200.068,26.875 200.068,34.099Z" style="fill:rgb(50,62,73);fill-rule:nonzero;"/>
        <path d="M304.199,46.919C309.341,45.227 312.92,41.843 312.92,35.205C312.92,26.614 308.169,22.124 296.066,22.124L273.743,22.124L273.743,62.147L286.109,62.147L286.109,48.09L290.663,48.09C293.397,48.09 294.373,49.001 295.74,51.539L300.946,62.147L313.701,62.147L308.43,51.734C307.128,49.066 305.826,47.7 304.199,46.919ZM293.592,40.997L286.109,40.997L286.109,29.738L294.178,29.738C298.864,29.738 300.946,31.3 300.946,35.4C300.946,39.89 298.668,40.997 293.592,40.997Z" style="fill:rgb(50,62,73);fill-rule:nonzero;"/>
        <path d="M363.699,42.168C363.699,55.444 371.184,62.147 383.029,62.147L397.28,62.147L397.28,53.492L386.216,53.492C379.058,53.492 376.324,50.368 376.324,42.168C376.324,33.968 379.058,30.779 386.216,30.779L397.28,30.779L397.28,22.124L383.029,22.124C371.184,22.124 363.699,28.827 363.699,42.168Z" style="fill:rgb(101,199,199);fill-rule:nonzero;"/>
        <path d="M422.562,21.343C409.547,21.343 401.152,27.655 401.152,42.167C401.152,56.615 409.482,62.798 422.497,62.798C435.578,62.798 443.907,56.615 443.907,42.167C443.907,27.655 435.643,21.343 422.562,21.343ZM422.562,54.272C416.64,54.272 413.711,51.799 413.711,42.233C413.711,32.536 416.509,29.934 422.497,29.934C428.485,29.934 431.347,32.536 431.347,42.233C431.347,51.799 428.419,54.272 422.562,54.272Z" style="fill:rgb(101,199,199);fill-rule:nonzero;"/>
        <path d="M462.839,22.124L450.475,22.124L450.475,62.147L481.321,62.147L481.321,53.427L462.839,53.427L462.839,22.124Z" style="fill:rgb(101,199,199);fill-rule:nonzero;"/>
        <path d="M505.602,22.124L486.468,22.124L486.468,62.147L505.536,62.147C518.747,62.147 526.166,55.509 526.166,42.038C526.166,28.176 518.682,22.124 505.602,22.124ZM504.365,53.557L498.899,53.557L498.899,30.714L504.365,30.714C511.394,30.714 513.541,33.447 513.541,42.494C513.541,51.54 511.133,53.557 504.365,53.557Z" style="fill:rgb(101,199,199);fill-rule:nonzero;"/>
        <path d="M153.528,62.145L140.578,62.145L131.077,36.493L121.576,62.145L108.627,62.145L123.465,22.125L138.691,22.125L153.528,62.145Z" style="fill:rgb(50,62,73);fill-rule:nonzero;"/>
        <path d="M362.352,62.145L349.403,62.145L339.901,36.493L330.401,62.145L317.45,62.145L332.288,22.125L347.514,22.125L362.352,62.145Z" style="fill:rgb(50,62,73);fill-rule:nonzero;"/>
    </g>
</svg>
